<?xml version="1.0" encoding="utf-8"?>
<!-- Generator: Adobe Illustrator 21.0.1, SVG Export Plug-In . SVG Version: 6.00 Build 0)  -->
<svg version="1.1" id="_x31_da556cd-9b06-4881-80d1-f50ab6b94df2"
	 xmlns="http://www.w3.org/2000/svg" xmlns:xlink="http://www.w3.org/1999/xlink" x="0px" y="0px" viewBox="0 0 51.5 61"
	 style="enable-background:new 0 0 51.5 61;" xml:space="preserve">
<style type="text/css">
	.st0{fill:#9FEC24;}
</style>
<title>signal-solid</title>
<path class="st0" d="M3.2,61C1.4,61,0,59.6,0,57.8V41.3c-0.1-1.7,1.2-3.2,3-3.3c1.7-0.1,3.2,1.2,3.3,3c0,0.1,0,0.2,0,0.4v16.5
	C6.3,59.6,4.9,61,3.2,61z"/>
<path class="st0" d="M25.8,61c-1.6,0.1-3-1-3.2-2.6V23.3c0.2-1.6,1.6-2.7,3.2-2.6c1.6-0.1,3,1,3.2,2.6v35.1
	C28.7,60,27.3,61.1,25.8,61z"/>
<path class="st0" d="M48.3,61c-1.8,0-3.2-1.4-3.2-3.2V3.2c-0.1-1.7,1.2-3.2,3-3.3c1.7-0.1,3.2,1.2,3.3,3c0,0.1,0,0.2,0,0.4v54.7
	C51.5,59.6,50.1,61,48.3,61z"/>
</svg>
