<svg xmlns="http://www.w3.org/2000/svg" xmlns:xlink="http://www.w3.org/1999/xlink" viewBox="0 0 500 100"><defs><style>.\31 620d233-717a-4260-b3d9-ab2ab2f89f8f,.\32 1826389-aa41-45eb-8578-426f3c7af9db,.\32 29890b9-2b6a-4812-94f9-afe970a0d7fa,.\32 dd2c838-c515-4ee9-a509-3e66d9a43668,.\33 89848ff-d611-4624-8b22-210bfe4edc0d,.\34 c1dc926-1cac-4de2-88f2-14c04a886a1f,.\35 a6cb8be-53f5-483b-bca8-61f4d59d87a4,.\36 149cd60-8e26-41e5-bf2f-cf68a71b7021,.\36 4886c2e-64b1-4534-9ab4-502940c0e51a,.\36 e4444b4-1ab1-4977-91f2-5c4618c01cda,.\37 0f6fc8f-88ab-4a04-b3c4-5edc01f38de7,.\37 61eb700-41a1-4567-8d60-ed9861978676,.\37 b79e39b-a624-492a-8942-1e2f0310dae8,.\38 f44720d-e8c2-441c-971c-60a1f7e982df,.\39 d374de7-c134-48da-bb49-8a6055701522,.a24ef21f-c169-4f01-b7e4-3229ad32c210,.af2b01c8-1568-4912-aad1-0bcca9f32db6,.ba915508-9a8e-4a2e-a9a9-087e8597d7c0,.bed47c38-880b-4a64-a169-b11b68be1a3e,.c3e51c5b-9c46-4347-ab18-39f893c5cedb,.c5ac5bbb-82b7-4ba6-a8ba-6a2060b15113,.d4ffb9a6-55ec-4239-9ec5-c39f9df6be1e,.eed08df2-feb7-4103-b033-90eafe7315b4,.f1ee8157-2b81-4c41-99a1-69258d416895,.fbaf2cd0-25e0-45cb-b03b-9f6193157974,.fd5751bb-d9e0-4cf2-b314-c843046917ea{fill:none;}.\31 620d233-717a-4260-b3d9-ab2ab2f89f8f,.\32 1826389-aa41-45eb-8578-426f3c7af9db,.\32 29890b9-2b6a-4812-94f9-afe970a0d7fa,.\32 dd2c838-c515-4ee9-a509-3e66d9a43668,.\33 89848ff-d611-4624-8b22-210bfe4edc0d,.\34 c1dc926-1cac-4de2-88f2-14c04a886a1f,.\35 a6cb8be-53f5-483b-bca8-61f4d59d87a4,.\36 149cd60-8e26-41e5-bf2f-cf68a71b7021,.\36 4886c2e-64b1-4534-9ab4-502940c0e51a,.\36 e4444b4-1ab1-4977-91f2-5c4618c01cda,.\37 0f6fc8f-88ab-4a04-b3c4-5edc01f38de7,.\37 61eb700-41a1-4567-8d60-ed9861978676,.\37 b79e39b-a624-492a-8942-1e2f0310dae8,.\38 f44720d-e8c2-441c-971c-60a1f7e982df,.\39 d374de7-c134-48da-bb49-8a6055701522,.a24ef21f-c169-4f01-b7e4-3229ad32c210,.af2b01c8-1568-4912-aad1-0bcca9f32db6,.ba915508-9a8e-4a2e-a9a9-087e8597d7c0,.bed47c38-880b-4a64-a169-b11b68be1a3e,.c3e51c5b-9c46-4347-ab18-39f893c5cedb,.c5ac5bbb-82b7-4ba6-a8ba-6a2060b15113,.eed08df2-feb7-4103-b033-90eafe7315b4,.f1ee8157-2b81-4c41-99a1-69258d416895,.fbaf2cd0-25e0-45cb-b03b-9f6193157974,.fd5751bb-d9e0-4cf2-b314-c843046917ea{stroke-miterlimit:10;stroke-width:2px;}.bed47c38-880b-4a64-a169-b11b68be1a3e{stroke:url(#f57f5f1d-56e3-4ba1-9d92-a62b42d0ac26);}.a24ef21f-c169-4f01-b7e4-3229ad32c210{stroke:url(#e52dd699-8709-4aba-806e-42378856887f);}.\33 89848ff-d611-4624-8b22-210bfe4edc0d{stroke:url(#83e2c3f3-a7bc-4680-9bde-a6581d63e77b);}.\34 c1dc926-1cac-4de2-88f2-14c04a886a1f{stroke:url(#bb049131-81a9-4b32-8f62-c7b32c192c81);}.fd5751bb-d9e0-4cf2-b314-c843046917ea{stroke:url(#9769350f-602a-427f-a3c4-1f39b2390ee4);}.c3e51c5b-9c46-4347-ab18-39f893c5cedb{stroke:url(#828fd42e-0840-4941-8e80-602740a9db6a);}.\32 dd2c838-c515-4ee9-a509-3e66d9a43668{stroke:url(#434ce4cd-c8c2-44ab-8ce5-9bd69f3ab6d8);}.\37 b79e39b-a624-492a-8942-1e2f0310dae8{stroke:url(#b30774d7-41b9-4a12-8ae6-ddf7b4a8e342);}.eed08df2-feb7-4103-b033-90eafe7315b4{stroke:url(#bf450618-483f-4943-af6f-104e638e9ac3);}.\36 e4444b4-1ab1-4977-91f2-5c4618c01cda{stroke:url(#c1d50039-4dc2-4fe1-b005-f594d8a1a32c);}.\37 61eb700-41a1-4567-8d60-ed9861978676{stroke:url(#9ad36158-82a3-40ce-9d87-f19e88dcd5ee);}.\35 a6cb8be-53f5-483b-bca8-61f4d59d87a4{stroke:url(#6d26bbd6-1932-4c3f-afd2-db1d9d6ea5ae);}.\37 0f6fc8f-88ab-4a04-b3c4-5edc01f38de7{stroke:url(#c8941b5a-6f5b-4667-b844-415fc5244905);}.\31 620d233-717a-4260-b3d9-ab2ab2f89f8f{stroke:url(#ea56d817-874a-473e-998f-fd50aeb3d43f);}.c5ac5bbb-82b7-4ba6-a8ba-6a2060b15113{stroke:url(#91f677f2-0df5-4a95-8e34-658509c5f6ab);}.f1ee8157-2b81-4c41-99a1-69258d416895{stroke:url(#67bc3e2a-4932-43b6-bac1-f19748a766b1);}.af2b01c8-1568-4912-aad1-0bcca9f32db6{stroke:url(#9b4e02e0-9b9d-4263-b947-1e0c540c200f);}.\36 149cd60-8e26-41e5-bf2f-cf68a71b7021{stroke:url(#d0222979-cc71-4387-9117-9aaf92e2db7c);}.\32 1826389-aa41-45eb-8578-426f3c7af9db{stroke:url(#30dbdeac-f2f2-4260-b9b6-13bc575be8ee);}.\32 29890b9-2b6a-4812-94f9-afe970a0d7fa{stroke:url(#c18b3ecb-506e-4c86-bd70-dfa9611e5278);}.ba915508-9a8e-4a2e-a9a9-087e8597d7c0{stroke:url(#7d14e1a4-2ce4-4d42-b965-32a78f3615c4);}.\39 d374de7-c134-48da-bb49-8a6055701522{stroke:url(#bf533dde-4ba4-4d65-b7e4-d890aa5d021d);}.fbaf2cd0-25e0-45cb-b03b-9f6193157974{stroke:url(#2b3e06f3-a611-4b02-9277-0c240ef855ce);}.\36 4886c2e-64b1-4534-9ab4-502940c0e51a{stroke:url(#8890ed6a-932a-4f7c-96d2-4987b2b3aa7f);}.\38 f44720d-e8c2-441c-971c-60a1f7e982df{stroke:url(#84ebf6a2-ee99-4428-b0ca-576af6e6f7bc);}</style><linearGradient id="f57f5f1d-56e3-4ba1-9d92-a62b42d0ac26" x1="21.21" y1="33.17" x2="73.13" y2="33.17" gradientUnits="userSpaceOnUse"><stop offset="0" stop-color="#69e868"/><stop offset="1" stop-color="#4f78fd"/></linearGradient><linearGradient id="e52dd699-8709-4aba-806e-42378856887f" x1="95.48" y1="64.91" x2="142.44" y2="64.91" gradientUnits="userSpaceOnUse"><stop offset="0" stop-color="#7c0eff"/><stop offset="1" stop-color="#ae8ff6"/></linearGradient><linearGradient id="83e2c3f3-a7bc-4680-9bde-a6581d63e77b" x1="95.49" y1="64.91" x2="142.43" y2="64.91" xlink:href="#e52dd699-8709-4aba-806e-42378856887f"/><linearGradient id="bb049131-81a9-4b32-8f62-c7b32c192c81" x1="106.3" y1="64.91" x2="131.62" y2="64.91" xlink:href="#e52dd699-8709-4aba-806e-42378856887f"/><linearGradient id="9769350f-602a-427f-a3c4-1f39b2390ee4" x1="109.69" y1="64.96" x2="127.49" y2="64.96" xlink:href="#e52dd699-8709-4aba-806e-42378856887f"/><linearGradient id="828fd42e-0840-4941-8e80-602740a9db6a" x1="96.95" y1="64.91" x2="140.97" y2="64.91" xlink:href="#e52dd699-8709-4aba-806e-42378856887f"/><linearGradient id="434ce4cd-c8c2-44ab-8ce5-9bd69f3ab6d8" x1="275.67" y1="59.97" x2="316" y2="59.97" gradientUnits="userSpaceOnUse"><stop offset="0" stop-color="#ffa4dd"/><stop offset="1" stop-color="#ff5b9d"/></linearGradient><linearGradient id="b30774d7-41b9-4a12-8ae6-ddf7b4a8e342" x1="288.6" y1="60.8" x2="306.08" y2="60.8" xlink:href="#434ce4cd-c8c2-44ab-8ce5-9bd69f3ab6d8"/><linearGradient id="bf450618-483f-4943-af6f-104e638e9ac3" x1="183.6" y1="39.03" x2="230.31" y2="39.03" gradientTransform="translate(4.04 -17.37) rotate(4.85)" gradientUnits="userSpaceOnUse"><stop offset="0" stop-color="#fc6767"/><stop offset="1" stop-color="#ec008c"/></linearGradient><linearGradient id="c1d50039-4dc2-4fe1-b005-f594d8a1a32c" x1="191.44" y1="43.72" x2="195.61" y2="43.72" gradientTransform="translate(4.39 -16.21) rotate(4.85)" xlink:href="#bf450618-483f-4943-af6f-104e638e9ac3"/><linearGradient id="9ad36158-82a3-40ce-9d87-f19e88dcd5ee" x1="196.59" y1="41.35" x2="201.08" y2="41.35" gradientTransform="translate(4.21 -16.67) rotate(4.85)" xlink:href="#bf450618-483f-4943-af6f-104e638e9ac3"/><linearGradient id="6d26bbd6-1932-4c3f-afd2-db1d9d6ea5ae" x1="202.06" y1="40.88" x2="206.55" y2="40.88" gradientTransform="translate(4.19 -17.14) rotate(4.85)" xlink:href="#bf450618-483f-4943-af6f-104e638e9ac3"/><linearGradient id="c8941b5a-6f5b-4667-b844-415fc5244905" x1="207.96" y1="42.98" x2="212.02" y2="42.98" gradientTransform="translate(4.39 -17.61) rotate(4.85)" xlink:href="#bf450618-483f-4943-af6f-104e638e9ac3"/><linearGradient id="ea56d817-874a-473e-998f-fd50aeb3d43f" x1="212.85" y1="39.07" x2="217.49" y2="39.07" gradientTransform="translate(4.08 -18.06) rotate(4.85)" xlink:href="#bf450618-483f-4943-af6f-104e638e9ac3"/><linearGradient id="91f677f2-0df5-4a95-8e34-658509c5f6ab" x1="218.62" y1="40.38" x2="222.96" y2="40.38" gradientTransform="translate(4.21 -18.53) rotate(4.85)" xlink:href="#bf450618-483f-4943-af6f-104e638e9ac3"/><linearGradient id="67bc3e2a-4932-43b6-bac1-f19748a766b1" x1="350.26" y1="37.42" x2="407.87" y2="37.42" gradientUnits="userSpaceOnUse"><stop offset="0" stop-color="#0fe"/><stop offset="1" stop-color="#d585ff"/></linearGradient><linearGradient id="9b4e02e0-9b9d-4263-b947-1e0c540c200f" x1="355.87" y1="35.58" x2="365.81" y2="35.58" gradientTransform="translate(16.18 -77.03) rotate(12.46)" xlink:href="#67bc3e2a-4932-43b6-bac1-f19748a766b1"/><linearGradient id="d0222979-cc71-4387-9117-9aaf92e2db7c" x1="391.34" y1="33.44" x2="396.92" y2="33.44" xlink:href="#67bc3e2a-4932-43b6-bac1-f19748a766b1"/><linearGradient id="30dbdeac-f2f2-4260-b9b6-13bc575be8ee" x1="386.45" y1="30.55" x2="391.99" y2="30.55" xlink:href="#67bc3e2a-4932-43b6-bac1-f19748a766b1"/><linearGradient id="c18b3ecb-506e-4c86-bd70-dfa9611e5278" x1="394.26" y1="28.56" x2="399.81" y2="28.56" xlink:href="#67bc3e2a-4932-43b6-bac1-f19748a766b1"/><linearGradient id="7d14e1a4-2ce4-4d42-b965-32a78f3615c4" x1="389.34" y1="25.59" x2="394.92" y2="25.59" xlink:href="#67bc3e2a-4932-43b6-bac1-f19748a766b1"/><linearGradient id="bf533dde-4ba4-4d65-b7e4-d890aa5d021d" x1="370.48" y1="42.32" x2="377.66" y2="42.32" gradientTransform="translate(17.95 -79.72) rotate(12.46)" xlink:href="#67bc3e2a-4932-43b6-bac1-f19748a766b1"/><linearGradient id="2b3e06f3-a611-4b02-9277-0c240ef855ce" x1="380.52" y1="40.1" x2="387.7" y2="40.1" gradientTransform="translate(17.7 -81.94) rotate(12.46)" xlink:href="#67bc3e2a-4932-43b6-bac1-f19748a766b1"/><linearGradient id="8890ed6a-932a-4f7c-96d2-4987b2b3aa7f" x1="435.53" y1="60.11" x2="477.02" y2="60.11" xlink:href="#e52dd699-8709-4aba-806e-42378856887f"/><linearGradient id="84ebf6a2-ee99-4428-b0ca-576af6e6f7bc" x1="447.33" y1="42.04" x2="473.64" y2="42.04" xlink:href="#e52dd699-8709-4aba-806e-42378856887f"/></defs><title>supericon</title><g id="847a2c3b-7824-46f1-b914-e558da614ccb" data-name="Layer 1"><rect class="d4ffb9a6-55ec-4239-9ec5-c39f9df6be1e" width="500" height="100"/></g><g id="7b9fc461-c72c-4149-b830-9ed5a2ddf726" data-name="Layer 3"><path class="bed47c38-880b-4a64-a169-b11b68be1a3e" d="M51,44.9,39.11,46l-10.29.94a5.52,5.52,0,0,1-5.26-2.66A9.77,9.77,0,0,1,34.77,29.94a11.63,11.63,0,0,1,20.51-6.37A12.67,12.67,0,0,1,72,33.73l0,.19a8.78,8.78,0,0,1-8,9.78L51,44.9,39.11,46"/><path class="a24ef21f-c169-4f01-b7e4-3229ad32c210" d="M127,85.88a22.46,22.46,0,1,1,12.49-11.82A22.34,22.34,0,0,1,127,85.88Z"/><path class="389848ff-d611-4624-8b22-210bfe4edc0d" d="M123.51,76.79a138.55,138.55,0,0,1-18.35,5.67.39.39,0,0,1-.33-.07,22.45,22.45,0,0,1-8.05-21,.38.38,0,0,1,.19-.27,146.37,146.37,0,0,1,35.79-13.7.38.38,0,0,1,.33.07,22.45,22.45,0,0,1,8.05,21,.39.39,0,0,1-.19.27A138.49,138.49,0,0,1,123.51,76.79Z"/><path class="4c1dc926-1cac-4de2-88f2-14c04a886a1f" d="M111.21,44.66c-2.28.87-3.66,3.77-3.88,8.16a39.38,39.38,0,0,0,2.88,15.43,39.38,39.38,0,0,0,8.16,13.42c3.1,3.12,6.05,4.36,8.34,3.48s3.66-3.77,3.88-8.16a39.39,39.39,0,0,0-2.89-15.44,39.39,39.39,0,0,0-8.15-13.42C116.45,45,113.49,43.79,111.21,44.66Z"/><path class="fd5751bb-d9e0-4cf2-b314-c843046917ea" d="M127,85.88a.38.38,0,0,1-.5-.22L110.72,44.44a.38.38,0,0,1,.22-.5"/><path class="c3e51c5b-9c46-4347-ab18-39f893c5cedb" d="M139.45,56.66a.38.38,0,0,1,.27.72L98.47,73.17a.38.38,0,1,1-.27-.72"/><path class="2dd2c838-c515-4ee9-a509-3e66d9a43668" d="M285.86,43.6a19.14,19.14,0,1,1-8.5,11.27"/><path class="7b79e39b-a624-492a-8942-1e2f0310dae8" d="M303.94,57.66l-11.78-4.89a1.85,1.85,0,0,0-2.54,1.95l1.66,12.64a1.85,1.85,0,0,0,3,1.23l10.12-7.76A1.85,1.85,0,0,0,303.94,57.66Z"/><rect class="eed08df2-feb7-4103-b033-90eafe7315b4" x="185.8" y="24.93" width="42.32" height="28.21" transform="translate(-2.56 17.65) rotate(-4.85)"/><rect class="6e4444b4-1ab1-4977-91f2-5c4618c01cda" x="192.96" y="37.04" width="1.13" height="13.36" rx="0.57" ry="0.57" transform="translate(-3 16.53) rotate(-4.85)"/><rect class="761eb700-41a1-4567-8d60-ed9861978676" x="198.27" y="32.76" width="1.13" height="17.19" rx="0.57" ry="0.57" transform="translate(-2.79 16.97) rotate(-4.85)"/><rect class="5a6cb8be-53f5-483b-bca8-61f4d59d87a4" x="203.74" y="32.29" width="1.13" height="17.19" rx="0.57" ry="0.57" transform="translate(-2.73 17.43) rotate(-4.85)"/><rect class="70f6fc8f-88ab-4a04-b3c4-5edc01f38de7" x="209.43" y="36.95" width="1.13" height="12.05" rx="0.57" ry="0.57" transform="matrix(1, -0.08, 0.08, 1, -2.88, 17.92)"/><rect class="1620d233-717a-4260-b3d9-ab2ab2f89f8f" x="214.6" y="29.58" width="1.13" height="18.97" rx="0.57" ry="0.57" transform="translate(-2.53 18.34) rotate(-4.85)"/><rect class="c5ac5bbb-82b7-4ba6-a8ba-6a2060b15113" x="220.23" y="32.67" width="1.13" height="15.41" rx="0.57" ry="0.57" transform="translate(-2.62 18.82) rotate(-4.85)"/><path class="f1ee8157-2b81-4c41-99a1-69258d416895" d="M399.84,21.6l0,0a8.46,8.46,0,0,0-8.75-3.35l-6.19,1.37L373.69,22l-15.15,3.35A8.46,8.46,0,0,0,352,32.11v.06c-1.3,7.3-.82,14.08,1,18.68,1.28,3.3,3.24,5.48,5.7,5.91,4,.7,8.21-3.23,11.26-9.66l19.94-4.41c5.48,4.54,11,6.32,14.29,4,2.05-1.44,2.91-4.24,2.68-7.77C406.52,34,404.1,27.67,399.84,21.6Z"/><circle class="af2b01c8-1568-4912-aad1-0bcca9f32db6" cx="360.84" cy="35.58" r="3.97" transform="translate(0.82 78.7) rotate(-12.46)"/><path class="6149cd60-8e26-41e5-bf2f-cf68a71b7021" d="M392.87,32.36l-.49,1.56a1,1,0,0,0,1.16,1.27l1.59-.35a1,1,0,0,0,.52-1.64l-1.1-1.2A1,1,0,0,0,392.87,32.36Z"/><path class="21826389-aa41-45eb-8578-426f3c7af9db" d="M390.3,29.3l-1.56-.49A1,1,0,0,0,387.47,30l.35,1.59a1,1,0,0,0,1.64.52l1.2-1.1A1,1,0,0,0,390.3,29.3Z"/><path class="229890b9-2b6a-4812-94f9-afe970a0d7fa" d="M396,29.81l1.56.49a1,1,0,0,0,1.27-1.16l-.35-1.59a1,1,0,0,0-1.64-.52l-1.2,1.1A1,1,0,0,0,396,29.81Z"/><path class="ba915508-9a8e-4a2e-a9a9-087e8597d7c0" d="M393.38,26.67l.49-1.56a1,1,0,0,0-1.16-1.27l-1.59.35a1,1,0,0,0-.52,1.64l1.1,1.2A1,1,0,0,0,393.38,26.67Z"/><rect class="9d374de7-c134-48da-bb49-8a6055701522" x="371.43" y="41.81" width="5.28" height="1.02" rx="0.51" ry="0.51" transform="translate(-0.32 81.72) rotate(-12.46)"/><rect class="fbaf2cd0-25e0-45cb-b03b-9f6193157974" x="381.47" y="39.59" width="5.28" height="1.02" rx="0.51" ry="0.51" transform="translate(0.4 83.83) rotate(-12.46)"/><polygon class="64886c2e-64b1-4534-9ab4-502940c0e51a" points="471.21 78.75 436.78 71.18 445.37 41.43 475.89 48.15 471.21 78.75"/><path class="8f44720d-e8c2-441c-971c-60a1f7e982df" d="M448.31,50.78l3.12-14.18a9.11,9.11,0,0,1,10.82-6.92l3.26.72a9.11,9.11,0,0,1,6.92,10.82L469.31,55.4"/></g></svg>