<svg xmlns="http://www.w3.org/2000/svg" xmlns:xlink="http://www.w3.org/1999/xlink" viewBox="0 0 500 100"><defs><style>.\30 7c2fb6b-4d00-4df6-86da-32f836bee97d,.\30 a8a25ca-1fdb-4c6e-8574-851da3fb8716,.\30 d1488b5-4dde-4246-8e88-2d83a75c29da,.\31 044e2eb-a767-43d4-a186-ad7e9ac7539e,.\32 8445675-83ce-403d-9e87-72748e29ec4c,.\32 9d8c4f5-41b3-4948-9881-c2ed9033cfdd,.\32 e330fe3-888a-465c-8abf-6f2e561c6d52,.\32 fca7ca4-dec1-4159-87b8-760eb73e0453,.\33 07db346-ff73-4a8d-aa68-2b11d67ca9bd,.\33 2eb29f3-bb3b-41ec-84d2-b5170650876d,.\33 3c469de-c025-43e2-9feb-068e97fd107a,.\33 60a55dc-a3ff-4b44-b403-ebec2ef94c22,.\33 9131551-585a-46e4-b6ea-6949b9b39e63,.\34 b34e87d-3380-4660-b41c-56dcec7f729d,.\37 e835f39-dea1-44c9-8ec0-d4099097781c,.\39 a690715-1608-4fd2-be60-25d2a8fb5820,.a0f18143-ed41-465d-b41b-cce5696d56d0,.aec47943-e6aa-4da9-893f-f53da4bde6eb,.af927d50-8740-4191-ae4c-f7abd03e3614,.b235e82b-25d2-4025-9ea1-a05cf849fb28,.ce64091f-ece8-4b1c-854c-fe422be5ef37,.d1af51cf-e7d7-4d96-8c0f-20a216c01102,.d6740b77-baf3-4576-aed6-c716017ab9b4,.f0c24f12-9e7c-4523-a24c-fa930ef4e6a3,.f7887075-7635-4e8d-8eba-73e2fed9c230,.fcfd1062-de3f-413f-81b3-d24f259529ef{fill:none;}.\30 7c2fb6b-4d00-4df6-86da-32f836bee97d,.\30 a8a25ca-1fdb-4c6e-8574-851da3fb8716,.\30 d1488b5-4dde-4246-8e88-2d83a75c29da,.\31 044e2eb-a767-43d4-a186-ad7e9ac7539e,.\32 8445675-83ce-403d-9e87-72748e29ec4c,.\32 e330fe3-888a-465c-8abf-6f2e561c6d52,.\32 fca7ca4-dec1-4159-87b8-760eb73e0453,.\33 07db346-ff73-4a8d-aa68-2b11d67ca9bd,.\33 2eb29f3-bb3b-41ec-84d2-b5170650876d,.\33 3c469de-c025-43e2-9feb-068e97fd107a,.\33 60a55dc-a3ff-4b44-b403-ebec2ef94c22,.\33 9131551-585a-46e4-b6ea-6949b9b39e63,.\34 b34e87d-3380-4660-b41c-56dcec7f729d,.\37 e835f39-dea1-44c9-8ec0-d4099097781c,.\39 a690715-1608-4fd2-be60-25d2a8fb5820,.a0f18143-ed41-465d-b41b-cce5696d56d0,.aec47943-e6aa-4da9-893f-f53da4bde6eb,.af927d50-8740-4191-ae4c-f7abd03e3614,.b235e82b-25d2-4025-9ea1-a05cf849fb28,.ce64091f-ece8-4b1c-854c-fe422be5ef37,.d1af51cf-e7d7-4d96-8c0f-20a216c01102,.d6740b77-baf3-4576-aed6-c716017ab9b4,.f0c24f12-9e7c-4523-a24c-fa930ef4e6a3,.f7887075-7635-4e8d-8eba-73e2fed9c230,.fcfd1062-de3f-413f-81b3-d24f259529ef{stroke-miterlimit:10;}.\32 8445675-83ce-403d-9e87-72748e29ec4c{stroke:url(#01cda686-ad49-4960-a2d8-e9431fb4b8b8);}.\32 fca7ca4-dec1-4159-87b8-760eb73e0453,.\33 2eb29f3-bb3b-41ec-84d2-b5170650876d,.aec47943-e6aa-4da9-893f-f53da4bde6eb,.b235e82b-25d2-4025-9ea1-a05cf849fb28,.fcfd1062-de3f-413f-81b3-d24f259529ef{stroke-width:0.75px;}.\32 fca7ca4-dec1-4159-87b8-760eb73e0453{stroke:url(#ba2a8b4d-bfed-4501-bb81-7b3478c950e8);}.\33 2eb29f3-bb3b-41ec-84d2-b5170650876d{stroke:url(#f8724b76-9c6f-4796-bfd6-8082bb67d8d6);}.b235e82b-25d2-4025-9ea1-a05cf849fb28{stroke:url(#4c71568c-2287-4653-9602-b0ddb0f90587);}.aec47943-e6aa-4da9-893f-f53da4bde6eb{stroke:url(#d8172803-b0f2-4639-b7b8-b39d08c4c55f);}.fcfd1062-de3f-413f-81b3-d24f259529ef{stroke:url(#536ed588-544c-42cb-b2dc-0a2988342b6b);}.\30 a8a25ca-1fdb-4c6e-8574-851da3fb8716{stroke:url(#ccdca2cc-f8cb-49d2-9713-3a6c3ada1e22);}.af927d50-8740-4191-ae4c-f7abd03e3614{stroke:url(#7fcd3154-bca7-40b1-9284-6e34b8053492);}.ce64091f-ece8-4b1c-854c-fe422be5ef37{stroke:url(#ba768e0d-d377-4885-9674-a14cfec16400);}.\34 b34e87d-3380-4660-b41c-56dcec7f729d{stroke:url(#33adcf04-39ef-435e-b389-736a6be95e16);}.\33 60a55dc-a3ff-4b44-b403-ebec2ef94c22{stroke:url(#bf149727-b890-4e64-9419-eb0399e3d1d9);}.a0f18143-ed41-465d-b41b-cce5696d56d0{stroke:url(#16828bc3-da56-4127-a688-1b71f16580cf);}.\30 7c2fb6b-4d00-4df6-86da-32f836bee97d{stroke:url(#dec627a0-de41-41d0-a4ab-4b23c2c295ec);}.\33 9131551-585a-46e4-b6ea-6949b9b39e63{stroke:url(#7c5b8f79-efd2-444a-b2ba-c3da7c0238d3);}.\33 07db346-ff73-4a8d-aa68-2b11d67ca9bd{stroke:url(#7ffc8b71-1d02-4b15-962a-6dfb468a05e9);}.f7887075-7635-4e8d-8eba-73e2fed9c230{stroke:url(#3c173bb1-87f8-49e0-b650-2655ffe4afcb);}.\30 d1488b5-4dde-4246-8e88-2d83a75c29da{stroke:url(#ade08bc9-55b1-48d4-a1af-70175353fced);}.d1af51cf-e7d7-4d96-8c0f-20a216c01102{stroke:url(#91cde4f7-9444-424b-b04e-df2850f90b06);}.d6740b77-baf3-4576-aed6-c716017ab9b4{stroke:url(#8a1ee026-0317-45c8-9c80-35d9e594417f);}.\37 e835f39-dea1-44c9-8ec0-d4099097781c{stroke:url(#185b96a7-f755-4b09-8f12-6cb6e2a53384);}.f0c24f12-9e7c-4523-a24c-fa930ef4e6a3{stroke:url(#0d1780bd-6598-4764-bf5c-7f90bda0d7ea);}.\39 a690715-1608-4fd2-be60-25d2a8fb5820{stroke:url(#6d7ed34d-545f-4e22-9e44-4bd753ae11d9);}.\31 044e2eb-a767-43d4-a186-ad7e9ac7539e{stroke:url(#684707c7-71ba-49c7-955b-c60211433124);}.\33 3c469de-c025-43e2-9feb-068e97fd107a{stroke:url(#26771d65-ddd4-4d1e-8e76-3ef87a06acda);}.\32 e330fe3-888a-465c-8abf-6f2e561c6d52{stroke:url(#2eba6191-6342-4061-868d-6334b9f0d3c8);}</style><linearGradient id="01cda686-ad49-4960-a2d8-e9431fb4b8b8" x1="21.71" y1="33.17" x2="72.63" y2="33.17" gradientUnits="userSpaceOnUse"><stop offset="0" stop-color="#fc6767"/><stop offset="1" stop-color="#ec008c"/></linearGradient><linearGradient id="ba2a8b4d-bfed-4501-bb81-7b3478c950e8" x1="96.1" y1="64.91" x2="141.81" y2="64.91" xlink:href="#01cda686-ad49-4960-a2d8-e9431fb4b8b8"/><linearGradient id="f8724b76-9c6f-4796-bfd6-8082bb67d8d6" x1="96.11" y1="64.91" x2="141.81" y2="64.91" xlink:href="#01cda686-ad49-4960-a2d8-e9431fb4b8b8"/><linearGradient id="4c71568c-2287-4653-9602-b0ddb0f90587" x1="106.93" y1="64.91" x2="130.99" y2="64.91" xlink:href="#01cda686-ad49-4960-a2d8-e9431fb4b8b8"/><linearGradient id="d8172803-b0f2-4639-b7b8-b39d08c4c55f" x1="110.31" y1="64.94" x2="127.12" y2="64.94" xlink:href="#01cda686-ad49-4960-a2d8-e9431fb4b8b8"/><linearGradient id="536ed588-544c-42cb-b2dc-0a2988342b6b" x1="97.57" y1="64.91" x2="140.35" y2="64.91" xlink:href="#01cda686-ad49-4960-a2d8-e9431fb4b8b8"/><linearGradient id="ccdca2cc-f8cb-49d2-9713-3a6c3ada1e22" x1="276.17" y1="59.97" x2="315.5" y2="59.97" xlink:href="#01cda686-ad49-4960-a2d8-e9431fb4b8b8"/><linearGradient id="7fcd3154-bca7-40b1-9284-6e34b8053492" x1="289.1" y1="60.8" x2="305.58" y2="60.8" xlink:href="#01cda686-ad49-4960-a2d8-e9431fb4b8b8"/><linearGradient id="ba768e0d-d377-4885-9674-a14cfec16400" x1="184.14" y1="39.03" x2="229.77" y2="39.03" gradientTransform="translate(4.04 -17.37) rotate(4.85)" xlink:href="#01cda686-ad49-4960-a2d8-e9431fb4b8b8"/><linearGradient id="33adcf04-39ef-435e-b389-736a6be95e16" x1="191.94" y1="43.72" x2="195.11" y2="43.72" gradientTransform="translate(4.39 -16.21) rotate(4.85)" xlink:href="#01cda686-ad49-4960-a2d8-e9431fb4b8b8"/><linearGradient id="bf149727-b890-4e64-9419-eb0399e3d1d9" x1="197.09" y1="41.35" x2="200.58" y2="41.35" gradientTransform="translate(4.21 -16.67) rotate(4.85)" xlink:href="#01cda686-ad49-4960-a2d8-e9431fb4b8b8"/><linearGradient id="16828bc3-da56-4127-a688-1b71f16580cf" x1="202.56" y1="40.88" x2="206.05" y2="40.88" gradientTransform="translate(4.19 -17.14) rotate(4.85)" xlink:href="#01cda686-ad49-4960-a2d8-e9431fb4b8b8"/><linearGradient id="dec627a0-de41-41d0-a4ab-4b23c2c295ec" x1="208.46" y1="42.98" x2="211.52" y2="42.98" gradientTransform="translate(4.39 -17.61) rotate(4.85)" xlink:href="#01cda686-ad49-4960-a2d8-e9431fb4b8b8"/><linearGradient id="7c5b8f79-efd2-444a-b2ba-c3da7c0238d3" x1="213.35" y1="39.07" x2="216.99" y2="39.07" gradientTransform="translate(4.08 -18.06) rotate(4.85)" xlink:href="#01cda686-ad49-4960-a2d8-e9431fb4b8b8"/><linearGradient id="7ffc8b71-1d02-4b15-962a-6dfb468a05e9" x1="219.12" y1="40.38" x2="222.46" y2="40.38" gradientTransform="translate(4.21 -18.53) rotate(4.85)" xlink:href="#01cda686-ad49-4960-a2d8-e9431fb4b8b8"/><linearGradient id="3c173bb1-87f8-49e0-b650-2655ffe4afcb" x1="350.76" y1="37.42" x2="407.37" y2="37.42" xlink:href="#01cda686-ad49-4960-a2d8-e9431fb4b8b8"/><linearGradient id="ade08bc9-55b1-48d4-a1af-70175353fced" x1="356.37" y1="35.58" x2="365.31" y2="35.58" gradientTransform="translate(16.18 -77.03) rotate(12.46)" xlink:href="#01cda686-ad49-4960-a2d8-e9431fb4b8b8"/><linearGradient id="91cde4f7-9444-424b-b04e-df2850f90b06" x1="391.84" y1="33.44" x2="396.42" y2="33.44" xlink:href="#01cda686-ad49-4960-a2d8-e9431fb4b8b8"/><linearGradient id="8a1ee026-0317-45c8-9c80-35d9e594417f" x1="386.95" y1="30.55" x2="391.49" y2="30.55" xlink:href="#01cda686-ad49-4960-a2d8-e9431fb4b8b8"/><linearGradient id="185b96a7-f755-4b09-8f12-6cb6e2a53384" x1="394.76" y1="28.56" x2="399.31" y2="28.56" xlink:href="#01cda686-ad49-4960-a2d8-e9431fb4b8b8"/><linearGradient id="0d1780bd-6598-4764-bf5c-7f90bda0d7ea" x1="389.84" y1="25.59" x2="394.42" y2="25.59" xlink:href="#01cda686-ad49-4960-a2d8-e9431fb4b8b8"/><linearGradient id="6d7ed34d-545f-4e22-9e44-4bd753ae11d9" x1="370.98" y1="42.32" x2="377.16" y2="42.32" gradientTransform="translate(17.95 -79.72) rotate(12.46)" xlink:href="#01cda686-ad49-4960-a2d8-e9431fb4b8b8"/><linearGradient id="684707c7-71ba-49c7-955b-c60211433124" x1="381.02" y1="40.1" x2="387.2" y2="40.1" gradientTransform="translate(17.7 -81.94) rotate(12.46)" xlink:href="#01cda686-ad49-4960-a2d8-e9431fb4b8b8"/><linearGradient id="26771d65-ddd4-4d1e-8e76-3ef87a06acda" x1="436.15" y1="60.1" x2="476.46" y2="60.1" xlink:href="#01cda686-ad49-4960-a2d8-e9431fb4b8b8"/><linearGradient id="2eba6191-6342-4061-868d-6334b9f0d3c8" x1="447.82" y1="42.24" x2="473.14" y2="42.24" xlink:href="#01cda686-ad49-4960-a2d8-e9431fb4b8b8"/></defs><title>supericon</title><g id="21e2f0c7-eb77-44c4-b0a1-9105d1f5adbf" data-name="Layer 1"><rect class="29d8c4f5-41b3-4948-9881-c2ed9033cfdd" width="500" height="100"/></g><g id="3fa69cb0-6bc7-4668-88e5-4e2dfe41d19a" data-name="Layer 3"><path class="28445675-83ce-403d-9e87-72748e29ec4c" d="M51,44.9,39.11,46l-10.29.94a5.52,5.52,0,0,1-5.26-2.66A9.77,9.77,0,0,1,34.77,29.94a11.63,11.63,0,0,1,20.51-6.37A12.67,12.67,0,0,1,72,33.73l0,.19a8.78,8.78,0,0,1-8,9.78L51,44.9,39.11,46"/><path class="2fca7ca4-dec1-4159-87b8-760eb73e0453" d="M127,85.88a22.46,22.46,0,1,1,12.49-11.82A22.34,22.34,0,0,1,127,85.88Z"/><path class="32eb29f3-bb3b-41ec-84d2-b5170650876d" d="M123.51,76.79a138.55,138.55,0,0,1-18.35,5.67.39.39,0,0,1-.33-.07,22.45,22.45,0,0,1-8.05-21,.38.38,0,0,1,.19-.27,146.37,146.37,0,0,1,35.79-13.7.38.38,0,0,1,.33.07,22.45,22.45,0,0,1,8.05,21,.39.39,0,0,1-.19.27A138.49,138.49,0,0,1,123.51,76.79Z"/><path class="b235e82b-25d2-4025-9ea1-a05cf849fb28" d="M111.21,44.66c-2.28.87-3.66,3.77-3.88,8.16a39.38,39.38,0,0,0,2.88,15.43,39.38,39.38,0,0,0,8.16,13.42c3.1,3.12,6.05,4.36,8.34,3.48s3.66-3.77,3.88-8.16a39.39,39.39,0,0,0-2.89-15.44,39.39,39.39,0,0,0-8.15-13.42C116.45,45,113.49,43.79,111.21,44.66Z"/><path class="aec47943-e6aa-4da9-893f-f53da4bde6eb" d="M127,85.88a.38.38,0,0,1-.5-.22L110.72,44.44a.38.38,0,0,1,.22-.5"/><path class="fcfd1062-de3f-413f-81b3-d24f259529ef" d="M139.45,56.66a.38.38,0,0,1,.27.72L98.47,73.17a.38.38,0,1,1-.27-.72"/><path class="0a8a25ca-1fdb-4c6e-8574-851da3fb8716" d="M285.86,43.6a19.14,19.14,0,1,1-8.5,11.27"/><path class="af927d50-8740-4191-ae4c-f7abd03e3614" d="M303.94,57.66l-11.78-4.89a1.85,1.85,0,0,0-2.54,1.95l1.66,12.64a1.85,1.85,0,0,0,3,1.23l10.12-7.76A1.85,1.85,0,0,0,303.94,57.66Z"/><rect class="ce64091f-ece8-4b1c-854c-fe422be5ef37" x="185.8" y="24.93" width="42.32" height="28.21" transform="translate(-2.56 17.65) rotate(-4.85)"/><rect class="4b34e87d-3380-4660-b41c-56dcec7f729d" x="192.96" y="37.04" width="1.13" height="13.36" rx="0.57" ry="0.57" transform="translate(-3 16.53) rotate(-4.85)"/><rect class="360a55dc-a3ff-4b44-b403-ebec2ef94c22" x="198.27" y="32.76" width="1.13" height="17.19" rx="0.57" ry="0.57" transform="translate(-2.79 16.97) rotate(-4.85)"/><rect class="a0f18143-ed41-465d-b41b-cce5696d56d0" x="203.74" y="32.29" width="1.13" height="17.19" rx="0.57" ry="0.57" transform="translate(-2.73 17.43) rotate(-4.85)"/><rect class="07c2fb6b-4d00-4df6-86da-32f836bee97d" x="209.43" y="36.95" width="1.13" height="12.05" rx="0.57" ry="0.57" transform="matrix(1, -0.08, 0.08, 1, -2.88, 17.92)"/><rect class="39131551-585a-46e4-b6ea-6949b9b39e63" x="214.6" y="29.58" width="1.13" height="18.97" rx="0.57" ry="0.57" transform="translate(-2.53 18.34) rotate(-4.85)"/><rect class="307db346-ff73-4a8d-aa68-2b11d67ca9bd" x="220.23" y="32.67" width="1.13" height="15.41" rx="0.57" ry="0.57" transform="translate(-2.62 18.82) rotate(-4.85)"/><path class="f7887075-7635-4e8d-8eba-73e2fed9c230" d="M399.84,21.6l0,0a8.46,8.46,0,0,0-8.75-3.35l-6.19,1.37L373.69,22l-15.15,3.35A8.46,8.46,0,0,0,352,32.11v.06c-1.3,7.3-.82,14.08,1,18.68,1.28,3.3,3.24,5.48,5.7,5.91,4,.7,8.21-3.23,11.26-9.66l19.94-4.41c5.48,4.54,11,6.32,14.29,4,2.05-1.44,2.91-4.24,2.68-7.77C406.52,34,404.1,27.67,399.84,21.6Z"/><circle class="0d1488b5-4dde-4246-8e88-2d83a75c29da" cx="360.84" cy="35.58" r="3.97" transform="translate(0.82 78.7) rotate(-12.46)"/><path class="d1af51cf-e7d7-4d96-8c0f-20a216c01102" d="M392.87,32.36l-.49,1.56a1,1,0,0,0,1.16,1.27l1.59-.35a1,1,0,0,0,.52-1.64l-1.1-1.2A1,1,0,0,0,392.87,32.36Z"/><path class="d6740b77-baf3-4576-aed6-c716017ab9b4" d="M390.3,29.3l-1.56-.49A1,1,0,0,0,387.47,30l.35,1.59a1,1,0,0,0,1.64.52l1.2-1.1A1,1,0,0,0,390.3,29.3Z"/><path class="7e835f39-dea1-44c9-8ec0-d4099097781c" d="M396,29.81l1.56.49a1,1,0,0,0,1.27-1.16l-.35-1.59a1,1,0,0,0-1.64-.52l-1.2,1.1A1,1,0,0,0,396,29.81Z"/><path class="f0c24f12-9e7c-4523-a24c-fa930ef4e6a3" d="M393.38,26.67l.49-1.56a1,1,0,0,0-1.16-1.27l-1.59.35a1,1,0,0,0-.52,1.64l1.1,1.2A1,1,0,0,0,393.38,26.67Z"/><rect class="9a690715-1608-4fd2-be60-25d2a8fb5820" x="371.43" y="41.81" width="5.28" height="1.02" rx="0.51" ry="0.51" transform="translate(-0.32 81.72) rotate(-12.46)"/><rect class="1044e2eb-a767-43d4-a186-ad7e9ac7539e" x="381.47" y="39.59" width="5.28" height="1.02" rx="0.51" ry="0.51" transform="translate(0.4 83.83) rotate(-12.46)"/><polygon class="33c469de-c025-43e2-9feb-068e97fd107a" points="471.21 78.75 436.78 71.18 445.37 41.43 475.89 48.15 471.21 78.75"/><path class="2e330fe3-888a-465c-8abf-6f2e561c6d52" d="M448.31,50.78l3.12-14.18a9.11,9.11,0,0,1,10.82-6.92l3.26.72a9.11,9.11,0,0,1,6.92,10.82L469.31,55.4"/></g></svg>